<svg xmlns="http://www.w3.org/2000/svg" viewBox="0 0 865 205" role="img" aria-label="Pairs of d and r labelings on four-vertex cycles with three or four parallel edges">
<defs><marker id="arrow" viewBox="0 0 8 8" refX="7" refY="4" markerWidth="5" markerHeight="5" orient="auto"><path d="M0 0L8 4L0 8Z" fill="#111"/></marker></defs>
<path d="M150 45L150 175" fill="none" stroke="#111" stroke-width="1.3"/><path d="M150 175L30 175" fill="none" stroke="#111" stroke-width="1.3"/><path d="M30 175L30 45" fill="none" stroke="#111" stroke-width="1.3"/><path d="M30 45Q90 20 150 45" fill="none" stroke="#111" stroke-width="1.3"/><path d="M30 45Q90 45 150 45" fill="none" stroke="#111" stroke-width="1.3"/><path d="M30 45Q90 70 150 45" fill="none" stroke="#111" stroke-width="1.3"/><circle cx="30" cy="45" r="3.2" fill="#111"/><text x="14" y="51" text-anchor="middle" fill="#111" font-family="Georgia, serif" font-size="19">4</text><circle cx="150" cy="45" r="3.2" fill="#111"/><text x="166" y="51" text-anchor="middle" fill="#111" font-family="Georgia, serif" font-size="19">4</text><circle cx="150" cy="175" r="3.2" fill="#111"/><text x="166" y="181" text-anchor="middle" fill="#111" font-family="Georgia, serif" font-size="19">2</text><circle cx="30" cy="175" r="3.2" fill="#111"/><text x="14" y="181" text-anchor="middle" fill="#111" font-family="Georgia, serif" font-size="19">2</text><path d="M350 45L350 175" fill="none" stroke="#111" stroke-width="1.3"/><path d="M350 175L230 175" fill="none" stroke="#111" stroke-width="1.3"/><path d="M230 175L230 45" fill="none" stroke="#111" stroke-width="1.3"/><path d="M230 45Q290 20 350 45" fill="none" stroke="#111" stroke-width="1.3"/><path d="M230 45Q290 45 350 45" fill="none" stroke="#111" stroke-width="1.3"/><path d="M230 45Q290 70 350 45" fill="none" stroke="#111" stroke-width="1.3"/><circle cx="230" cy="45" r="3.2" fill="#111"/><text x="214" y="51" text-anchor="middle" fill="#111" font-family="Georgia, serif" font-size="19">1</text><circle cx="350" cy="45" r="3.2" fill="#111"/><text x="366" y="51" text-anchor="middle" fill="#111" font-family="Georgia, serif" font-size="19">1</text><circle cx="350" cy="175" r="3.2" fill="#111"/><text x="366" y="181" text-anchor="middle" fill="#111" font-family="Georgia, serif" font-size="19">1</text><circle cx="230" cy="175" r="3.2" fill="#111"/><text x="214" y="181" text-anchor="middle" fill="#111" font-family="Georgia, serif" font-size="19">1</text><path d="M630 45L630 175" fill="none" stroke="#111" stroke-width="1.3"/><path d="M630 175L510 175" fill="none" stroke="#111" stroke-width="1.3"/><path d="M510 175L510 45" fill="none" stroke="#111" stroke-width="1.3"/><path d="M510 45Q570 7.5 630 45" fill="none" stroke="#111" stroke-width="1.3"/><path d="M510 45Q570 32.5 630 45" fill="none" stroke="#111" stroke-width="1.3"/><path d="M510 45Q570 57.5 630 45" fill="none" stroke="#111" stroke-width="1.3"/><path d="M510 45Q570 82.5 630 45" fill="none" stroke="#111" stroke-width="1.3"/><circle cx="510" cy="45" r="3.2" fill="#111"/><text x="494" y="51" text-anchor="middle" fill="#111" font-family="Georgia, serif" font-size="19">3</text><circle cx="630" cy="45" r="3.2" fill="#111"/><text x="646" y="51" text-anchor="middle" fill="#111" font-family="Georgia, serif" font-size="19">6</text><circle cx="630" cy="175" r="3.2" fill="#111"/><text x="646" y="181" text-anchor="middle" fill="#111" font-family="Georgia, serif" font-size="19">3</text><circle cx="510" cy="175" r="3.2" fill="#111"/><text x="494" y="181" text-anchor="middle" fill="#111" font-family="Georgia, serif" font-size="19">9</text><path d="M830 45L830 175" fill="none" stroke="#111" stroke-width="1.3"/><path d="M830 175L710 175" fill="none" stroke="#111" stroke-width="1.3"/><path d="M710 175L710 45" fill="none" stroke="#111" stroke-width="1.3"/><path d="M710 45Q770 7.5 830 45" fill="none" stroke="#111" stroke-width="1.3"/><path d="M710 45Q770 32.5 830 45" fill="none" stroke="#111" stroke-width="1.3"/><path d="M710 45Q770 57.5 830 45" fill="none" stroke="#111" stroke-width="1.3"/><path d="M710 45Q770 82.5 830 45" fill="none" stroke="#111" stroke-width="1.3"/><circle cx="710" cy="45" r="3.2" fill="#111"/><text x="694" y="51" text-anchor="middle" fill="#111" font-family="Georgia, serif" font-size="19">7</text><circle cx="830" cy="45" r="3.2" fill="#111"/><text x="846" y="51" text-anchor="middle" fill="#111" font-family="Georgia, serif" font-size="19">5</text><circle cx="830" cy="175" r="3.2" fill="#111"/><text x="846" y="181" text-anchor="middle" fill="#111" font-family="Georgia, serif" font-size="19">2</text><circle cx="710" cy="175" r="3.2" fill="#111"/><text x="694" y="181" text-anchor="middle" fill="#111" font-family="Georgia, serif" font-size="19">1</text>
</svg>
